<?xml version="1.0" encoding="UTF-8"?>
<svg xmlns="http://www.w3.org/2000/svg" xmlns:xlink="http://www.w3.org/1999/xlink" width="876pt" height="1228pt" viewBox="0 0 876 1228" version="1.1">
<g id="surface1">
<path style="fill:none;stroke-width:6.2188;stroke-linecap:butt;stroke-linejoin:miter;stroke:rgb(1.559448%,28.619385%,3.919983%);stroke-opacity:1;stroke-miterlimit:11.4739;" d="M 2129.757813 2683.367188 C 2273.675781 2683.367188 2391.363281 2566.171875 2391.363281 2422.25 C 2391.363281 2278.324219 2273.675781 2160.632813 2129.757813 2160.632813 C 1985.84375 2160.632813 1868.636719 2278.324219 1868.636719 2422.25 C 1868.636719 2566.171875 1985.84375 2683.367188 2129.757813 2683.367188 Z M 2129.757813 2683.367188 " transform="matrix(1,0,0,-1,-1692,2812)"/>
<path style="fill-rule:nonzero;fill:#fff;fill-opacity:1;stroke-width:6.2188;stroke-linecap:butt;stroke-linejoin:miter;stroke:rgb(1.559448%,28.619385%,3.919983%);stroke-opacity:1;stroke-miterlimit:3.8636;" d="M 2129.746094 2661.980469 C 2261.800781 2661.980469 2369.980469 2554.308594 2369.980469 2422.253906 C 2369.980469 2290.203125 2261.800781 2182.027344 2129.746094 2182.027344 C 1997.695313 2182.027344 1890.019531 2290.203125 1890.019531 2422.253906 C 1890.019531 2554.308594 1997.695313 2661.980469 2129.746094 2661.980469 Z M 2129.746094 2661.980469 " transform="matrix(1,0,0,-1,-1692,2812)"/>
<path style="fill-rule:nonzero;fill:#fff;fill-opacity:1;stroke-width:6.2189;stroke-linecap:butt;stroke-linejoin:miter;stroke:rgb(1.559448%,28.619385%,3.919983%);stroke-opacity:1;stroke-miterlimit:3.8636;" d="M 2129.617188 2274.683594 C 2065.992188 2274.683594 1979.039063 2296.5625 1929.976563 2341.292969 C 1916.390625 2353.664063 1909.46875 2372.316406 1909.578125 2393.210938 C 1909.816406 2422.871094 1927.007813 2439.683594 1928.863281 2441.925781 L 2051.949219 2577.035156 C 2085.414063 2614.519531 2104.957031 2619.90625 2129.851563 2619.90625 C 2155.144531 2619.90625 2174.796875 2613.441406 2208.152344 2576.925781 L 2332.101563 2441.617188 C 2343.554688 2428.898438 2350.777344 2410.59375 2350.410156 2393.859375 C 2350.050781 2372 2341.375 2355.894531 2327.082031 2342.816406 C 2275.542969 2296.167969 2193.613281 2274.683594 2129.617188 2274.683594 Z M 2129.617188 2274.683594 " transform="matrix(1,0,0,-1,-1692,2812)"/>
<path style="fill-rule:nonzero;fill:#fff;fill-opacity:1;stroke-width:6.1834;stroke-linecap:butt;stroke-linejoin:miter;stroke:rgb(1.559448%,28.619385%,3.919983%);stroke-opacity:1;stroke-miterlimit:3.8636;" d="M 1947.105469 2357.828125 C 1938.761719 2365.425781 1931.003906 2377.070313 1931.089844 2393.535156 C 1931.1875 2404.296875 1936.679688 2412.992188 1939.878906 2418.742188 C 1941.492188 2421.640625 1943.136719 2423.921875 1944.449219 2425.566406 C 1946.167969 2427.722656 1947.238281 2428.789063 1947.664063 2429.300781 L 2067.136719 2563.003906 C 2097.398438 2596.902344 2111.78125 2599.015625 2129.859375 2599.015625 C 2148.070313 2599.015625 2162.683594 2596.058594 2193.132813 2562.722656 L 2316.113281 2428.472656 C 2324.332031 2419.277344 2329.398438 2405.875 2329.152344 2394.660156 C 2328.890625 2378.933594 2323.03125 2367.824219 2312.347656 2358.046875 C 2265.898438 2316.0625 2189.960938 2295.574219 2129.625 2295.574219 C 2069.695313 2295.574219 1990.53125 2318.238281 1947.105469 2357.828125 Z M 1947.105469 2357.828125 " transform="matrix(1,0,0,-1,-1692,2812)"/>
<path style=" stroke:none;fill-rule:nonzero;fill:#fff;fill-opacity:1;" d="M 460.214844 294.519531 C 461.097656 295.558594 462.167969 296.984375 463.121094 298.414063 C 463.628906 299.171875 464.089844 299.90625 464.472656 300.574219 C 465.671875 302.667969 464.097656 304.378906 461.914063 303.359375 C 455.664063 300.449219 448.261719 298.378906 441.199219 297.882813 L 441.199219 313.863281 L 461.792969 313.863281 C 467.828125 313.863281 470.96875 307.480469 471.015625 301.03125 C 471.058594 294.578125 468.007813 288.195313 461.792969 288.195313 L 441.199219 288.195313 L 441.199219 292.667969 C 447.566406 293.128906 452.453125 294.46875 453.441406 294.980469 C 455.144531 295.824219 455.898438 295.445313 456.453125 294.816406 C 456.585938 294.667969 456.703125 294.5 456.824219 294.332031 C 457.644531 293.199219 459.011719 293.136719 459.929688 294.191406 Z M 427.988281 314.128906 L 427.988281 299.433594 C 421.949219 301.640625 417.171875 306.210938 415.085938 314.128906 Z M 427.746094 350.6875 L 427.746094 323.210938 L 413.949219 323.210938 L 413.945313 324.054688 C 413.984375 339.148438 419.847656 347.140625 427.746094 350.6875 Z M 441.636719 358.707031 L 441.199219 365.238281 L 462.507813 365.238281 C 472.242188 365.238281 477.105469 354.84375 477.09375 344.402344 C 477.082031 333.960938 472.191406 323.570313 462.507813 323.570313 L 441.199219 323.570313 L 441.199219 352.992188 C 449.402344 352.664063 457.71875 349.777344 463.210938 346.292969 C 465.476563 344.855469 467.539063 347.273438 465.761719 349.28125 C 460.878906 354.804688 451.824219 358.40625 441.636719 358.707031 Z M 427.746094 357.964844 C 427.683594 357.882813 427.578125 357.738281 427.554688 357.722656 C 413.503906 354.195313 401.710938 343.226563 402.539063 324.152344 L 402.585938 323.210938 L 393.226563 323.210938 L 385.636719 335.140625 C 391.726563 372.539063 418.945313 387.046875 446.277344 387.046875 C 470.960938 387.046875 491.242188 376.363281 501.773438 365.226563 C 502.203125 364.789063 502.648438 364.386719 503.0625 364.097656 C 503.925781 363.496094 504.683594 363.429688 505.097656 363.484375 C 506.160156 363.625 507.375 364.28125 506.890625 366.320313 C 506.757813 366.875 506.453125 367.476563 506.121094 368.042969 C 495.597656 385.597656 473.539063 398.449219 446.277344 398.1875 C 417.71875 397.839844 386.867188 384.199219 372.59375 355.644531 L 369.960938 359.78125 C 369.902344 359.894531 369.691406 360.308594 369.519531 360.859375 C 369.3125 361.511719 369.140625 362.386719 369.261719 363.289063 C 369.480469 364.914063 370.609375 366.527344 374.054688 367.210938 C 374.824219 367.363281 375.652344 368.371094 375.652344 369.15625 L 375.652344 369.546875 C 375.652344 370.605469 374.722656 371.53125 373.667969 371.53125 L 342.25 371.53125 C 341.191406 371.53125 340.265625 370.605469 340.265625 369.546875 L 340.265625 369.035156 C 340.265625 368.324219 341.058594 367.292969 341.75 367.113281 L 342.558594 366.902344 C 343.964844 366.53125 345.882813 365.992188 347.953125 365.265625 C 352.046875 363.828125 356.800781 361.570313 359.1875 358.453125 L 368.054688 344.226563 C 365.765625 336.710938 364.503906 328.378906 364.503906 319.210938 C 364.503906 265.070313 408.597656 246.140625 438.285156 245.671875 C 456.339844 245.3125 471.363281 251.484375 473.667969 252.703125 C 477.296875 254.570313 478.90625 253.480469 480.128906 251.761719 C 480.742188 250.898438 481.257813 249.878906 481.886719 248.988281 C 482.328125 248.367188 482.824219 247.824219 483.421875 247.4375 C 483.910156 247.121094 485.203125 247.160156 485.675781 247.507813 C 485.789063 247.59375 485.929688 247.699219 486.09375 247.839844 C 486.859375 248.492188 487.777344 249.488281 488.773438 250.710938 C 490.769531 253.15625 493.074219 256.523438 495.109375 259.925781 C 497.148438 263.324219 498.914063 266.761719 499.835938 269.34375 C 500.148438 270.230469 500.324219 270.910156 500.414063 271.398438 C 500.625 272.566406 499.824219 273.621094 498.644531 273.730469 C 498.234375 273.769531 497.757813 273.8125 497.28125 273.84375 C 496.828125 273.875 496.375 273.890625 495.988281 273.867188 C 495.921875 273.863281 495.109375 273.605469 495.050781 273.566406 C 453.476563 247.539063 384.976563 246.667969 384.382813 318.011719 L 401.820313 290.015625 C 402.722656 288.574219 402.324219 287.335938 401.429688 286.179688 C 400.992188 285.613281 400.4375 285.070313 399.878906 284.539063 L 399.050781 283.753906 L 398.636719 283.339844 C 397.074219 281.777344 397.832031 279.953125 400.042969 279.953125 L 467.875 279.953125 L 468.300781 280 C 490.441406 284.878906 491.664063 311.476563 474.273438 317.007813 C 474.121094 317.046875 473.6875 317.164063 473.308594 317.308594 C 473.070313 317.398438 472.832031 317.507813 472.648438 317.628906 C 472.351563 317.828125 472.34375 318.007813 472.34375 318.023438 C 472.34375 318.03125 472.339844 318.222656 472.632813 318.457031 C 472.808594 318.601563 473.050781 318.738281 473.292969 318.863281 C 473.785156 319.109375 474.34375 319.300781 474.433594 319.328125 C 505.847656 329.929688 494.351563 371.421875 463.726563 371.53125 L 419.183594 371.53125 C 416.476563 371.53125 416.097656 368.226563 418.734375 367.613281 C 419.714844 367.386719 421.042969 367.007813 422.378906 366.511719 C 423.679688 366.027344 424.992188 365.40625 425.992188 364.632813 C 426.957031 363.886719 427.664063 362.921875 427.746094 361.832031 Z M 404.101563 313.957031 C 407.929688 300.488281 417.949219 295.046875 427.988281 293.253906 L 427.988281 288.195313 L 415.28125 288.195313 L 399.15625 314.128906 L 403.867188 314.132813 Z M 258.226563 415.488281 L 258.671875 414.972656 C 259.132813 414.441406 260.40625 414.179688 261.039063 414.484375 C 262.035156 414.96875 263.464844 415.636719 264.921875 416.234375 C 267.585938 417.335938 269.890625 416.613281 271.585938 415.148438 C 272.433594 414.421875 277.984375 407.058594 283.617188 399.476563 C 289.253906 391.890625 294.984375 384.066406 296.191406 382.425781 C 297.394531 380.738281 297.511719 379.042969 297.328125 377.777344 C 297.238281 377.140625 297.066406 376.613281 296.921875 376.238281 C 296.824219 375.984375 296.734375 375.804688 296.695313 375.726563 L 293.65625 372.199219 C 293.113281 371.570313 293.097656 370.269531 293.628906 369.628906 L 294.304688 368.820313 C 294.976563 368.011719 296.28125 367.890625 297.09375 368.558594 C 304.46875 374.632813 315.421875 382.613281 322.695313 387.296875 C 323.644531 387.90625 323.890625 389.203125 323.234375 390.121094 L 322.949219 390.515625 C 322.449219 391.21875 321.179688 391.519531 320.414063 391.121094 C 315.714844 388.65625 312.066406 391.066406 311.054688 392.527344 C 309.5 394.609375 288.164063 423.648438 287.097656 425.09375 C 286.003906 426.554688 285.644531 430.058594 287.464844 431.875 C 289.269531 433.695313 297.269531 439.027344 299.089844 439.519531 C 300.90625 439.988281 303.210938 440.472656 305.140625 439.867188 C 306.113281 439.5625 307.902344 438.53125 309.445313 437.574219 C 310.027344 437.214844 310.574219 436.863281 311.03125 436.566406 C 311.613281 436.191406 312.910156 436.289063 313.429688 436.746094 L 314.09375 437.335938 C 314.878906 438.035156 314.957031 439.34375 314.261719 440.132813 C 313.234375 441.296875 311.726563 443 310.210938 444.695313 C 308.863281 446.203125 307.503906 447.710938 306.472656 448.832031 L 305.785156 449.570313 C 305.296875 450.097656 304.007813 450.304688 303.378906 449.960938 C 292.4375 443.960938 270.5 429.460938 258.210938 418.5 C 257.453125 417.820313 257.359375 416.515625 258.019531 415.738281 Z M 348.019531 461.667969 C 357.46875 466.167969 367.285156 465.917969 375.542969 443.871094 C 378.933594 434.769531 381.570313 423.160156 369.582031 417.332031 C 355.5625 410.324219 348.636719 419.5 343.554688 431.875 C 338.09375 444.851563 338.589844 457.207031 348.019531 461.667969 Z M 344.765625 470.03125 C 325.496094 460.714844 316.53125 441.792969 328.894531 420.484375 C 338.457031 404.011719 355.78125 401.589844 373.128906 409.351563 C 395.28125 419.53125 400.839844 439.875 391.636719 456.59375 C 381.105469 475.859375 362.574219 478.511719 344.765625 470.03125 Z M 425.636719 425.9375 C 418.609375 425.972656 414.65625 427.265625 412.101563 429.042969 C 410.804688 429.945313 409.871094 430.972656 409.074219 432.023438 C 408.597656 432.65625 408.203125 433.261719 407.800781 433.863281 C 407.351563 434.535156 406.101563 434.902344 405.359375 434.578125 L 405.109375 434.46875 C 404.246094 434.09375 403.71875 432.894531 404.023438 432.007813 C 404.539063 430.503906 405.289063 428.179688 406.089844 425.878906 C 406.769531 423.921875 407.460938 421.964844 407.996094 420.5 L 408.351563 419.535156 C 408.609375 418.835938 409.722656 418.160156 410.464844 418.253906 C 431.015625 420.890625 440.773438 420.46875 459.605469 418.78125 C 460.246094 418.726563 461.359375 419.394531 461.609375 419.988281 L 461.945313 420.78125 C 462.472656 422.054688 463.144531 423.757813 463.804688 425.457031 C 464.542969 427.351563 465.265625 429.25 465.761719 430.554688 C 466.09375 431.433594 465.609375 432.644531 464.761719 433.050781 L 464.3125 433.265625 C 463.632813 433.589844 462.363281 433.292969 461.894531 432.699219 C 459.308594 429.394531 455.484375 427.648438 452.1875 426.730469 C 450.339844 426.214844 448.652344 425.960938 447.425781 425.832031 C 446.203125 425.703125 445.441406 425.703125 445.441406 425.703125 L 445.4375 473.425781 C 445.449219 473.535156 445.480469 473.824219 445.558594 474.171875 C 445.660156 474.621094 445.839844 475.222656 446.152344 475.835938 C 446.777344 477.066406 447.929688 478.332031 450.042969 478.511719 L 452.851563 478.738281 C 453.773438 478.816406 454.664063 479.769531 454.675781 480.691406 L 454.683594 481.484375 L 454.691406 482.238281 C 454.699219 483.191406 453.816406 484.15625 452.867188 484.230469 C 438.816406 485.359375 432.695313 485.355469 418.207031 484.222656 C 417.242188 484.148438 416.363281 483.179688 416.378906 482.210938 L 416.390625 481.484375 L 416.414063 480.65625 C 416.441406 479.628906 417.382813 478.714844 418.414063 478.726563 C 418.9375 478.730469 419.539063 478.699219 420.230469 478.632813 C 423.140625 478.328125 424.566406 476.964844 425.261719 475.679688 C 425.613281 475.035156 425.78125 474.410156 425.859375 473.945313 C 425.9375 473.503906 425.933594 473.171875 425.933594 473.171875 C 425.933594 472.335938 425.960938 460.925781 425.976563 449.558594 C 425.984375 443.652344 425.988281 437.75 425.980469 433.320313 L 425.964844 427.96875 L 425.953125 426.460938 C 425.945313 426.144531 425.84375 426.074219 425.761719 426.015625 Z M 469.839844 419.679688 C 469.621094 418.496094 470.425781 417.441406 471.625 417.339844 C 475.898438 416.976563 481.160156 415.847656 485.90625 414.675781 C 490.335938 413.585938 494.453125 412.421875 497.15625 411.691406 C 498.28125 411.390625 499.402344 412.089844 499.621094 413.230469 L 499.84375 414.367188 C 499.925781 414.792969 499.496094 415.992188 499.164063 416.269531 C 498.765625 416.601563 498.398438 416.910156 498.066406 417.214844 C 497.492188 417.742188 497.019531 418.253906 496.664063 418.835938 C 495.957031 419.996094 495.714844 421.4375 496.066406 423.828125 L 504.066406 454.160156 C 506.753906 462.542969 515.832031 464.496094 523.566406 462.132813 C 531.324219 459.765625 537.6875 453.121094 534.964844 444.476563 L 525.019531 413.464844 C 525.019531 413.464844 524.785156 413.167969 524.390625 412.726563 C 523.992188 412.28125 523.4375 411.691406 522.796875 411.101563 C 521.515625 409.925781 519.878906 408.738281 518.488281 408.738281 L 518.074219 408.738281 C 515.378906 408.738281 514.960938 405.519531 517.570313 404.835938 C 522.519531 403.535156 527.332031 401.65625 532 399.25 C 533.101563 398.679688 534.347656 399.164063 534.773438 400.332031 L 534.992188 400.933594 C 535.113281 401.265625 534.9375 402.5 534.734375 402.78125 C 534.558594 403.023438 534.308594 403.355469 533.980469 403.785156 C 533.210938 404.757813 532.90625 406.359375 532.796875 407.707031 C 532.707031 408.84375 532.753906 409.808594 532.769531 410.097656 L 543.679688 448.230469 C 548.996094 466.882813 497.964844 489.320313 488.214844 462.890625 L 478.273438 427.199219 C 477.117188 424.511719 475.09375 423.109375 473.394531 422.496094 C 472.742188 422.261719 472.136719 422.128906 471.632813 422.050781 C 471.027344 421.957031 470.097656 421.054688 469.984375 420.453125 Z M 578.210938 436 C 580.992188 435.867188 584.777344 434.5625 587.867188 433.292969 C 590.671875 432.140625 592.957031 430.984375 593.351563 430.78125 C 593.558594 430.652344 594.355469 430.152344 595.359375 429.398438 C 596.53125 428.523438 598.046875 427.277344 599.40625 425.804688 C 602.148438 422.832031 604.242188 418.964844 601.824219 415.28125 C 600.078125 412.5625 596.609375 412.613281 592.140625 413.796875 C 587.691406 414.976563 582.257813 417.28125 576.625 419.039063 C 565.847656 422.292969 554.578125 423.15625 548.289063 412.609375 C 543.339844 404.136719 546.488281 387.28125 566.582031 379.785156 C 572.214844 377.609375 575.492188 376.789063 577.777344 376.304688 C 578.921875 376.058594 579.816406 375.898438 580.640625 375.695313 C 581.464844 375.488281 582.222656 375.234375 583.066406 374.808594 C 583.921875 374.390625 585.257813 373.757813 586.222656 373.304688 C 586.714844 373.074219 587.992188 373.265625 588.394531 373.628906 L 594.648438 379.273438 C 595.253906 379.824219 595.433594 381.113281 594.992188 381.808594 L 594.207031 383.050781 C 593.839844 383.632813 592.621094 384.089844 591.960938 383.894531 C 590.953125 383.59375 589.339844 383.199219 587.464844 383 C 583.722656 382.605469 578.390625 382.816406 572.023438 385.238281 C 568.816406 386.445313 564.703125 388.742188 561.792969 391.484375 C 558.871094 394.238281 557.195313 397.414063 558.816406 400.375 C 559.726563 402.007813 561.566406 402.699219 563.820313 402.816406 C 566.070313 402.929688 568.730469 402.46875 571.277344 401.800781 C 576.367188 400.46875 581.042969 398.300781 581.042969 398.300781 C 581.839844 397.976563 587.617188 395.695313 594.097656 395.007813 C 600.433594 394.335938 608.449219 395.082031 612.496094 401.953125 C 618.785156 412.605469 614.074219 422.894531 608.617188 428.726563 C 595.953125 442.46875 574.886719 445.792969 570.019531 446.40625 C 569.613281 446.457031 568.445313 445.96875 568.195313 445.644531 L 561.066406 436.363281 C 559.480469 434.300781 561.328125 432.15625 563.601563 433.417969 C 567.625 435.648438 571.867188 436.308594 578.210938 436 Z M 578.210938 436 "/>
</g>
</svg>
